<svg fill="#000000" height="200px" width="200px" version="1.1" id="Layer_1" xmlns="http://www.w3.org/2000/svg" xmlns:xlink="http://www.w3.org/1999/xlink" viewBox="0 0 512.002 512.002" xml:space="preserve"><g id="SVGRepo_bgCarrier" stroke-width="0"></g><g id="SVGRepo_tracerCarrier" stroke-linecap="round" stroke-linejoin="round"></g><g id="SVGRepo_iconCarrier"> <g> <g> <g> <path d="M213.341,358.4c-4.719,0-8.533,3.823-8.533,8.533V384c0,4.71,3.814,8.533,8.533,8.533c4.719,0,8.533-3.823,8.533-8.533 v-17.067C221.874,362.223,218.06,358.4,213.341,358.4z"></path> <path d="M221.874,93.867c0-4.71-3.814-8.533-8.533-8.533c-4.719,0-8.533,3.823-8.533,8.533V332.8c0,4.71,3.814,8.533,8.533,8.533 c4.719,0,8.533-3.823,8.533-8.533V93.867z"></path> <path d="M324.274,93.867V204.8c0,4.71,3.814,8.533,8.533,8.533c4.719,0,8.533-3.823,8.533-8.533V93.867 c0-4.71-3.814-8.533-8.533-8.533C328.089,85.333,324.274,89.156,324.274,93.867z"></path> <path d="M256.007,93.867V230.4c0,4.71,3.814,8.533,8.533,8.533s8.533-3.823,8.533-8.533V93.867c0-4.71-3.814-8.533-8.533-8.533 S256.007,89.156,256.007,93.867z"></path> <path d="M102.407,17.067h332.8c14.114,0,25.6,11.486,25.6,25.6v230.4c0,4.71,3.814,8.533,8.533,8.533s8.533-3.823,8.533-8.533 v-230.4C477.874,19.14,458.734,0,435.207,0h-332.8c-4.719,0-8.533,3.823-8.533,8.533S97.689,17.067,102.407,17.067z"></path> <path d="M409.608,93.867v128c0,4.71,3.814,8.533,8.533,8.533s8.533-3.823,8.533-8.533v-128c0-4.71-3.814-8.533-8.533-8.533 S409.608,89.156,409.608,93.867z"></path> <path d="M375.474,93.867V204.8c0,4.71,3.814,8.533,8.533,8.533c4.719,0,8.533-3.823,8.533-8.533V93.867 c0-4.71-3.814-8.533-8.533-8.533C379.289,85.333,375.474,89.156,375.474,93.867z"></path> <path d="M136.541,93.867c0-4.71-3.814-8.533-8.533-8.533c-4.719,0-8.533,3.823-8.533,8.533V332.8c0,4.71,3.814,8.533,8.533,8.533 c4.719,0,8.533-3.823,8.533-8.533V93.867z"></path> <path d="M504.507,459.768l-65.869-65.869c-3.328-3.328-8.73-3.328-12.066,0c-3.328,3.337-3.328,8.738,0,12.066l65.869,65.869 c3.328,3.328,3.328,8.747,0,12.075c-3.319,3.32-8.738,3.32-12.058,0l-65.399-65.536c-2.927-2.935-7.552-3.328-10.948-0.947 c-16.529,11.631-35.251,17.775-54.161,17.775c-51.755,0-93.867-42.112-93.867-93.867c0-51.755,42.112-93.867,93.867-93.867 c51.755,0,93.867,42.112,93.867,93.867c0,9.139-1.306,18.159-3.891,26.82c-1.348,4.514,1.22,9.267,5.734,10.615 c4.54,1.374,9.276-1.22,10.615-5.734c3.055-10.24,4.608-20.907,4.608-31.701c0-61.167-49.766-110.933-110.933-110.933 s-110.933,49.766-110.933,110.933s49.766,110.933,110.933,110.933c20.147,0,40.038-5.828,57.95-16.904l60.484,60.604 c4.992,4.992,11.546,7.492,18.099,7.492c6.562,0,13.107-2.492,18.099-7.484C514.491,485.99,514.491,469.751,504.507,459.768z"></path> <path d="M403.574,471.834l-19.567,19.567l-19.567-19.567c-3.337-3.337-8.73-3.337-12.066,0l-19.567,19.567l-36.634-36.634 c-3.337-3.337-8.73-3.337-12.066,0l-36.634,36.634l-28.1-28.1c-3.336-3.337-8.73-3.337-12.066,0l-28.1,28.1l-45.167-45.167 c-3.337-3.337-8.73-3.337-12.066,0l-36.634,36.634V42.667C85.341,19.14,66.201,0,42.674,0C19.148,0,0.007,19.14,0.007,42.667 V332.8c0,4.71,3.814,8.533,8.533,8.533h34.133c4.719,0,8.533-3.823,8.533-8.533c0-4.71-3.814-8.533-8.533-8.533h-25.6v-281.6 c0-14.114,11.486-25.6,25.6-25.6s25.6,11.486,25.6,25.6v460.8c0,1.109,0.222,2.219,0.657,3.26 c0.87,2.082,2.526,3.746,4.617,4.617c2.082,0.862,4.437,0.862,6.519,0c1.05-0.435,1.988-1.058,2.782-1.852l45.158-45.158 l45.167,45.167c3.337,3.337,8.73,3.337,12.066,0l28.1-28.1l28.1,28.1c3.337,3.337,8.73,3.337,12.066,0l36.634-36.634 l36.634,36.634c3.336,3.337,8.73,3.337,12.066,0l19.567-19.567l19.567,19.567c1.664,1.664,3.849,2.5,6.033,2.5 c2.185,0,4.369-0.836,6.033-2.5l25.6-25.6c3.336-3.337,3.336-8.73,0-12.066C412.304,468.497,406.911,468.497,403.574,471.834z"></path> <path d="M370.286,267.375c-0.06-0.026-0.128-0.026-0.188-0.051c-6.46-1.766-13.218-2.79-20.224-2.79 c-13.594,0-26.342,3.584-37.427,9.796c-0.077,0.034-0.137,0.102-0.222,0.145c-23.33,13.184-39.151,38.195-39.151,66.859 c0,42.342,34.449,76.8,76.8,76.8s76.8-34.458,76.8-76.8C426.674,306.065,402.738,276.343,370.286,267.375z M349.874,401.067 c-32.93,0-59.733-26.795-59.733-59.733c0-16.23,6.528-30.942,17.067-41.728v50.261c0,4.71,3.814,8.533,8.533,8.533 s8.533-3.823,8.533-8.533v-62.421c7.774-3.703,16.435-5.845,25.6-5.845c2.91,0,5.743,0.282,8.533,0.683v67.584 c0,4.71,3.814,8.533,8.533,8.533s8.533-3.823,8.533-8.533v-62.421c20.139,9.617,34.133,30.123,34.133,53.888 C409.608,374.272,382.804,401.067,349.874,401.067z"></path> <path d="M179.207,358.4c-4.719,0-8.533,3.823-8.533,8.533V384c0,4.71,3.814,8.533,8.533,8.533s8.533-3.823,8.533-8.533v-17.067 C187.741,362.223,183.926,358.4,179.207,358.4z"></path> <path d="M128.007,358.4c-4.719,0-8.533,3.823-8.533,8.533V384c0,4.71,3.814,8.533,8.533,8.533c4.719,0,8.533-3.823,8.533-8.533 v-17.067C136.541,362.223,132.726,358.4,128.007,358.4z"></path> <path d="M187.741,93.867c0-4.71-3.814-8.533-8.533-8.533s-8.533,3.823-8.533,8.533V332.8c0,4.71,3.814,8.533,8.533,8.533 s8.533-3.823,8.533-8.533V93.867z"></path> </g> </g> </g> </g></svg>